<?xml version="1.0" encoding="utf-8"?>
<!-- Generator: Adobe Illustrator 24.1.1, SVG Export Plug-In . SVG Version: 6.00 Build 0)  -->
<svg version="1.1" id="e2652d7b-d014-44e7-aeea-709bf92e6067"
	 xmlns="http://www.w3.org/2000/svg" xmlns:xlink="http://www.w3.org/1999/xlink" x="0px" y="0px" viewBox="0 0 990.5 650.5"
	 style="enable-background:new 0 0 990.5 650.5;" xml:space="preserve">
<style type="text/css">
	.st0{fill:#CE2866;}
	.st1{fill:#E6E6E6;}
	.st2{fill:#CBCBCB;}
	.st3{opacity:0.8;fill:url(#SVGID_1_);enable-background:new    ;}
	.st4{opacity:0.8;fill:url(#SVGID_2_);enable-background:new    ;}
	.st5{fill:#240F3E;}
	.st6{fill:#2F2E41;}
	.st7{opacity:0.8;fill:url(#SVGID_3_);enable-background:new    ;}
	.st8{opacity:0.8;fill:url(#SVGID_4_);enable-background:new    ;}
	.st9{opacity:0.8;fill:url(#SVGID_5_);enable-background:new    ;}
	.st10{opacity:0.8;fill:url(#SVGID_6_);enable-background:new    ;}
	.st11{opacity:0.8;fill:url(#SVGID_7_);enable-background:new    ;}
</style>
<path class="st0" d="M603.9,423.8c-191.4,39.1-362.1,138.1-500.3,0s-138.1-362.1,0-500.3s316.8-67.2,500.3,0
	C1199.8,141.6,1032.2,336.3,603.9,423.8z"/>
<circle class="st1" cx="392.2" cy="-77.9" r="10.9"/>
<circle class="st1" cx="553.9" cy="-29" r="6.5"/>
<circle class="st1" cx="52.5" cy="176.1" r="6.5"/>
<circle class="st1" cx="437.7" cy="350.8" r="6.5"/>
<polygon class="st0" points="539.7,164.2 536.5,167.4 533.3,164.1 531.1,166.3 534.3,169.6 531.1,172.8 533.2,174.9 536.5,171.7 
	539.7,175 541.9,172.8 538.7,169.6 541.9,166.3 "/>
<polygon class="st1" points="109,270.5 105.7,273.7 102.5,270.5 100.3,272.6 103.5,275.9 100.3,279.1 102.4,281.3 105.7,278.1 
	108.9,281.3 111.1,279.2 107.9,275.9 111.1,272.7 "/>
<polygon class="st1" points="135,81.7 131.7,84.9 128.5,81.7 126.4,83.8 129.6,87.1 126.3,90.3 128.5,92.5 131.7,89.2 135,92.5 
	137.1,90.3 133.9,87.1 137.1,83.9 "/>
<g>
	<circle class="st1" cx="592" cy="278.6" r="66.2"/>
	<circle class="st2" cx="585.5" cy="233" r="7.6"/>
	<circle class="st2" cx="598.6" cy="309" r="7.6"/>
	<circle class="st2" cx="627.9" cy="266.7" r="5.4"/>
	<circle class="st2" cx="566" cy="284" r="17.4"/>
	<polygon class="st1" points="674.5,339.4 671.3,342.6 668,339.4 665.9,341.5 669.1,344.8 665.9,348 668,350.2 671.3,347 
		674.5,350.2 676.6,348.1 673.4,344.8 676.7,341.6 	"/>
</g>
<polygon class="st1" points="446.4,-29 443.2,-25.8 440,-29 437.8,-26.9 441,-23.6 437.8,-20.4 439.9,-18.2 443.2,-21.4 
	446.4,-18.2 448.6,-20.3 445.3,-23.6 448.6,-26.8 "/>
<linearGradient id="SVGID_1_" gradientUnits="userSpaceOnUse" x1="640.3947" y1="457.9369" x2="727.2046" y2="457.9369" gradientTransform="matrix(1 0 0 -1 -173.3513 539.4199)">
	<stop  offset="0" style="stop-color:#FFFFFF"/>
	<stop  offset="1" style="stop-color:#FFFFFF;stop-opacity:0.3"/>
</linearGradient>
<path class="st3" d="M469,131.9l33-38.6l33-38.6l18.6-21.8c1-1.2-0.6-3.1-1.6-1.9l-33,38.6l-33,38.6L467.4,130
	C466.3,131.2,467.9,133.1,469,131.9z"/>
<linearGradient id="SVGID_2_" gradientUnits="userSpaceOnUse" x1="581.7979" y1="319.041" x2="668.6078" y2="319.041" gradientTransform="matrix(1 0 0 -1 -173.3513 539.4199)">
	<stop  offset="0" style="stop-color:#FFFFFF"/>
	<stop  offset="1" style="stop-color:#FFFFFF;stop-opacity:0.3"/>
</linearGradient>
<path class="st4" d="M410.4,270.8l33-38.6l33-38.6l18.6-21.8c1-1.2-0.6-3.1-1.6-1.9l-33,38.6l-33,38.6l-18.6,21.8
	C407.8,270.1,409.3,272,410.4,270.8L410.4,270.8z"/>
<path class="st5" d="M244.1,57.2h61.9l0,0v24.3c0,8.7-7.1,15.8-15.8,15.8l0,0h-30.2c-8.7,0-15.8-7.1-15.8-15.8l0,0L244.1,57.2
	L244.1,57.2z"/>
<path class="st1" d="M326.5,380.6c-14.1,14.3-28.2,14.4-42.3,0.5l-10.9-96l-7.6,96.2c-14.1,11.4-27.3,13-39.1,0.4
	c-11.2-83.1-17.4-160.3-7.6-219.2l-20.6-83.6l46.7-21.7c9.4,23.2-5.4,35.1,28.1,34.7c33.2-0.4,30.7-12.9,29.4-34.7l42.9,16.5
	c7.6,2.9,11.6,11.2,9.1,19L333,161.4C341.4,196.1,332.8,292.5,326.5,380.6z"/>
<path class="st5" d="M261.4,464.2c0,0-34.6,3-39.3,1.1l0,0c-0.3-0.1-0.6-0.3-0.9-0.4c-6.9-3.5-7.1-13.4-0.7-17.7l13.7-9.1l-11.9-64
	l46.1,0.5L261.4,464.2z"/>
<path class="st5" d="M287.5,464.7c0,0,34.6,3,39.3,1.1l0,0c0.3-0.1,0.6-0.3,0.9-0.4c6.9-3.5,7.1-13.4,0.7-17.7l-13.7-9.1l16.8-64
	h-48.3L287.5,464.7z"/>
<path class="st1" d="M206.1,236.3l6.9,27.5c1.7,6.9-1.2,14.2-7.2,18l0,0c-7.7,4.9-17.9,2.6-22.8-5.1c-1.4-2.1-2.2-4.6-2.5-7.1
	l-1.5-13.7l-5.4-130.5c0-22.2,13.4-42.2,33.9-50.7l10.6-4.4L206.1,236.3z"/>
<path class="st1" d="M378.6,124.3l0,0.8l-4.4,105.3l-0.8,20.3l-0.2,4l-1.5,13.7c-1,9.1-9.1,15.7-18.2,14.7
	c-9.1-1-15.7-9.1-14.7-18.2c0.1-0.8,0.2-1.5,0.4-2.2l6.9-27.5l-0.2-2l-0.9-12.8L334.1,69.2l10.6,4.4
	C365.2,82.1,378.6,102.1,378.6,124.3z"/>
<path class="st6" d="M277.7,244.1c-39.4,0-63.7-13.7-64.1-13.9l1.1-1.9c0.5,0.3,49.2,27.6,120.9,3.9l0.7,2.1
	C317.5,240.7,297.7,244,277.7,244.1z"/>
<path class="st6" d="M238.7,344.2c-8.7-19.5-8.7-104.4-8.7-108l2.2,0c0,0.9,0,88,8.5,107.1L238.7,344.2z"/>
<path class="st6" d="M243.2,345c-7.7,0-12.9-1.6-16.2-3.5c-6.1-3.4-7.4-8.1-7.4-8.3l2.1-0.5l-1.1,0.3l1-0.3c0,0.2,1.1,4.1,6.5,7
	c5.9,3.3,17.7,5.7,40.6-1.2l0.6,2.1C258.4,343.8,249.9,345,243.2,345z"/>
<rect x="225.8" y="67.6" transform="matrix(0.9988 -4.891688e-02 4.891688e-02 0.9988 -7.1947 11.2832)" class="st6" width="2.2" height="170.2"/>
<path class="st6" d="M312.3,344.2l-2-0.9c8.5-19.1,8.5-106.2,8.5-107.1l2.2,0C321,239.8,321,324.6,312.3,344.2z"/>
<path class="st6" d="M307.8,345c-6.6,0-15.2-1.2-26.1-4.5l0.6-2.1c22.9,6.9,34.7,4.5,40.6,1.2c5.3-3,6.4-6.9,6.5-7l2.1,0.5
	c-0.1,0.2-1.3,4.9-7.4,8.3C320.7,343.4,315.5,345,307.8,345z"/>
<rect x="239" y="151.5" transform="matrix(4.881750e-02 -0.9988 0.9988 4.881750e-02 155.8396 468.9077)" class="st6" width="170.2" height="2.2"/>
<polygon class="st0" points="305.8,93.1 289.6,116.9 254.9,116.9 243.3,93.1 248.4,93.1 257.1,112.6 286.4,112.6 300.5,93.1 "/>
<polygon points="345,105 345.2,105.6 345,106.1 "/>
<path class="st5" d="M380.8,124.3l0,0.8l-20.6,6l-12.7-25.5l13-23.9C373.3,92.1,380.8,107.7,380.8,124.3z"/>
<path class="st5" d="M172.2,124.3l0,0.8l20.6,6l12.7-25.5l-13-23.9C179.6,92.1,172.2,107.7,172.2,124.3z"/>
<circle class="st1" cx="275" cy="17.6" r="57.5"/>
<circle class="st5" cx="275" cy="25.2" r="42.3"/>
<polygon class="st5" points="374.8,230.4 373.9,250.7 346.1,235.8 345.4,233.2 344.4,220.4 "/>
<polygon class="st5" points="176.8,230.4 177.8,250.7 207,235.8 207.8,233.2 208.8,220.4 "/>
<polygon class="st6" points="290.2,118 254.2,118 234.3,77.1 233.3,62.3 235.4,62.2 236.4,76.5 255.6,115.8 289,115.8 313.6,79.6 
	318.8,63.5 320.9,64.2 315.5,80.6 "/>
<polygon class="st1" points="588.7,76.4 585.5,79.6 582.4,76.4 580.3,78.5 583.4,81.7 580.2,84.8 582.4,86.9 585.5,83.8 588.7,87 
	590.8,84.9 587.6,81.7 590.8,78.5 "/>
<linearGradient id="SVGID_3_" gradientUnits="userSpaceOnUse" x1="343.62" y1="599.9089" x2="430.4299" y2="599.9089" gradientTransform="matrix(1 0 0 -1 -173.3513 539.4199)">
	<stop  offset="0" style="stop-color:#FFFFFF"/>
	<stop  offset="1" style="stop-color:#FFFFFF;stop-opacity:0.3"/>
</linearGradient>
<path class="st7" d="M172.2-10.1l33-38.6l33-38.6l18.6-21.8c1-1.2-0.6-3.1-1.6-1.9l-33,38.6l-33,38.6l-18.6,21.8
	C169.6-10.7,171.2-8.8,172.2-10.1z"/>
<linearGradient id="SVGID_4_" gradientUnits="userSpaceOnUse" x1="867.1856" y1="442.0234" x2="953.9956" y2="442.0234" gradientTransform="matrix(1 0 0 -1 -173.3513 539.4199)">
	<stop  offset="0" style="stop-color:#FFFFFF"/>
	<stop  offset="1" style="stop-color:#FFFFFF;stop-opacity:0.3"/>
</linearGradient>
<path class="st8" d="M695.8,147.8l33-38.6l33-38.6l18.6-21.8c1-1.2-0.6-3.1-1.6-1.9l-33,38.6l-33,38.6l-18.6,21.8
	C693.1,147.2,694.7,149,695.8,147.8z"/>
<circle class="st1" cx="725.8" cy="228.4" r="11.4"/>
<linearGradient id="SVGID_5_" gradientUnits="userSpaceOnUse" x1="1025.2924" y1="379.9128" x2="1112.1023" y2="379.9128" gradientTransform="matrix(1 0 0 -1 -173.3513 539.4199)">
	<stop  offset="0" style="stop-color:#FFFFFF"/>
	<stop  offset="1" style="stop-color:#FFFFFF;stop-opacity:0.3"/>
</linearGradient>
<path class="st9" d="M853.9,209.9l33-38.6l33-38.6l18.6-21.8c1-1.2-0.6-3.1-1.6-1.9l-33,38.6l-33,38.6l-18.6,21.8
	C851.2,209.3,852.8,211.1,853.9,209.9z"/>
<polygon class="st1" points="849.8,116.6 846.5,119.9 843.3,116.6 841.1,118.8 844.4,122 841.1,125.3 843.3,127.4 846.5,124.2 
	849.8,127.4 851.9,125.3 848.7,122 851.9,118.8 "/>
<polygon class="st1" points="153.6,-72.4 150.4,-69.2 147.1,-72.4 145,-70.3 148.2,-67 145,-63.8 147.1,-61.6 150.4,-64.8 
	153.6,-61.6 155.8,-63.7 152.5,-67 155.8,-70.2 "/>
<polygon class="st1" points="313.6,-94.1 310.3,-90.9 307.1,-94.1 304.9,-92 308.2,-88.7 304.9,-85.5 307.1,-83.3 310.3,-86.5 
	313.6,-83.3 315.7,-85.4 312.5,-88.7 315.7,-91.9 "/>
<polygon class="st1" points="358.7,41.2 355.4,44.4 352.2,41.2 350,43.3 353.3,46.6 350,49.8 352.2,52 355.4,48.7 358.7,52 
	360.8,49.8 357.6,46.6 360.8,43.4 "/>
<circle class="st1" cx="195.8" cy="25.2" r="6.5"/>
<circle class="st1" cx="495.3" cy="41.2" r="6.5"/>
<circle class="st1" cx="444.3" cy="77.3" r="11.4"/>
<polygon class="st1" points="693.6,37.1 687.3,43.5 681,37.1 676.7,41.3 683,47.7 676.7,54 680.9,58.2 687.2,51.9 693.6,58.3 
	697.8,54.1 691.5,47.7 697.8,41.4 "/>
<circle class="st1" cx="820.5" cy="25.2" r="11.4"/>
<polygon class="st1" points="935.3,16.5 930,21.7 924.8,16.5 921.3,20 926.5,25.2 921.3,30.4 924.7,33.9 930,28.7 935.2,34 
	938.7,30.5 933.5,25.2 938.8,20 "/>
<circle class="st1" cx="70.1" cy="52" r="11.9"/>
<circle class="st1" cx="651.7" cy="92.5" r="6.5"/>
<linearGradient id="SVGID_6_" gradientUnits="userSpaceOnUse" x1="913.3747" y1="402.6127" x2="1000.1846" y2="402.6127" gradientTransform="matrix(1 0 0 -1 -173.3513 539.4199)">
	<stop  offset="0" style="stop-color:#FFFFFF"/>
	<stop  offset="1" style="stop-color:#FFFFFF;stop-opacity:0.3"/>
</linearGradient>
<path class="st10" d="M741.9,187.2l33-38.6l33-38.6l18.6-21.8c1-1.2-0.6-3.1-1.6-1.9l-33,38.6l-33,38.6l-18.6,21.8
	C739.3,186.6,740.9,188.4,741.9,187.2z"/>
<linearGradient id="SVGID_7_" gradientUnits="userSpaceOnUse" x1="173.3513" y1="391.2018" x2="260.1612" y2="391.2018" gradientTransform="matrix(1 0 0 -1 -173.3513 539.4199)">
	<stop  offset="0" style="stop-color:#FFFFFF"/>
	<stop  offset="1" style="stop-color:#FFFFFF;stop-opacity:0.3"/>
</linearGradient>
<path class="st11" d="M1.9,198.7l33-38.6l33-38.6l18.6-21.8c1-1.2-0.6-3.1-1.6-1.9l-33,38.6l-33,38.6L0.3,196.8
	C-0.7,198,0.9,199.9,1.9,198.7z"/>
</svg>
