<svg id="Layer_1" data-name="Layer 1" xmlns="http://www.w3.org/2000/svg" xmlns:xlink="http://www.w3.org/1999/xlink" viewBox="0 0 425.2 425.2"><defs><style>.cls-1{fill:none;stroke-width:11px;}.cls-1,.cls-4{stroke:#fff;stroke-miterlimit:10;}.cls-2{clip-path:url(#clip-path);}.cls-3,.cls-4{fill:#fff;}.cls-4{stroke-width:3px;}</style><clipPath id="clip-path"><circle class="cls-1" cx="212.6" cy="212.6" r="202.45"/></clipPath></defs><g class="cls-2"><path class="cls-3" d="M203,198.12s5.72,83.46-59.5,140.56l138.11-.32s-63-55.79-59.79-139.73Z"/><path class="cls-3" d="M135.28,377.92a30,30,0,0,0,30,30h101a27.27,27.27,0,0,0,.82-54.53,32.71,32.71,0,1,0-61.5-22.32,24.5,24.5,0,0,0-34.33,17.42,29.55,29.55,0,0,0-5.94-.59A30,30,0,0,0,135.28,377.92Z"/><path class="cls-3" d="M152.69,293.42a28.86,28.86,0,0,0-5.79.58,23.89,23.89,0,0,0-33.45-17,31.87,31.87,0,0,0-59.92,21.76,26.57,26.57,0,0,0,.8,53.12h98.36a29.24,29.24,0,1,0,0-58.48Z"/><path class="cls-3" d="M252.78,313.49a16.72,16.72,0,0,0,16.71,16.72h56.22a15.19,15.19,0,0,0,.45-30.37,18.21,18.21,0,1,0-34.24-12.43,13.65,13.65,0,0,0-19.12,9.7,16.72,16.72,0,0,0-20,16.38Z"/><path class="cls-3" d="M251.47,351.36a29.24,29.24,0,0,0,29.24,29.24h98.36a26.57,26.57,0,0,0,.79-53.13,31.87,31.87,0,0,0-59.92-21.75,23.88,23.88,0,0,0-33.44,17,28.94,28.94,0,0,0-5.79-.58A29.24,29.24,0,0,0,251.47,351.36Z"/><path class="cls-3" d="M167.17,344.23a13.38,13.38,0,0,0-2.68.26,11,11,0,0,0-15.43-7.83,14.7,14.7,0,1,0-27.64,10,12.26,12.26,0,0,0,.37,24.51h45.38a13.49,13.49,0,1,0,0-27Z"/><path class="cls-3" d="M236.87,363.33a17.6,17.6,0,0,0-3.47.34,14.33,14.33,0,0,0-20.06-10.18,19.12,19.12,0,1,0-36,13.05,15.94,15.94,0,0,0,.48,31.87h59a17.54,17.54,0,1,0,0-35.08Z"/><path class="cls-3" d="M139.62,364.15a22.57,22.57,0,0,0-4.49.45,18.54,18.54,0,0,0-26-13.18,24.75,24.75,0,1,0-46.53,16.89,20.63,20.63,0,0,0,.62,41.25h76.37a22.71,22.71,0,1,0,0-45.41Z"/><path class="cls-3" d="M237.52,374a19.33,19.33,0,0,0,19.32,19.33h65a17.56,17.56,0,0,0,.53-35.11,21.06,21.06,0,1,0-39.59-14.37,15.78,15.78,0,0,0-22.1,11.21,19.66,19.66,0,0,0-3.83-.38A19.32,19.32,0,0,0,237.52,374Z"/><path class="cls-3" d="M193.88,431.26a27.26,27.26,0,0,0,27.26,27.26h91.69a24.77,24.77,0,0,0,.75-49.53,29.71,29.71,0,1,0-55.86-20.28,22.27,22.27,0,0,0-31.18,15.83,27.26,27.26,0,0,0-32.66,26.72Z"/><path class="cls-3" d="M210.88,393.11a21,21,0,0,0-4.11.41A17,17,0,0,0,183,381.46a22.65,22.65,0,0,0-42.57,15.46,18.87,18.87,0,0,0,.57,37.73h69.86a20.77,20.77,0,1,0,0-41.54Z"/><path class="cls-3" d="M347.65,322a16.72,16.72,0,0,0,16.71,16.72h56.22a15.19,15.19,0,0,0,.45-30.37,18.21,18.21,0,1,0-34.24-12.43,13.64,13.64,0,0,0-19.12,9.7,16.72,16.72,0,0,0-20,16.38Z"/><path class="cls-3" d="M74.89,295.51a13.39,13.39,0,0,0-2.68.27A11,11,0,0,0,56.78,288a14.7,14.7,0,1,0-27.64,10,12.26,12.26,0,0,0,.37,24.51H74.89a13.49,13.49,0,0,0,0-27Z"/><path class="cls-3" d="M120.58,326a13.53,13.53,0,0,0-2.62.26,10.8,10.8,0,0,0-15.12-7.67,14.4,14.4,0,1,0-27.08,9.83,12,12,0,0,0,.36,24h44.46a13.22,13.22,0,0,0,0-26.43Z"/><path class="cls-3" d="M145.45,157.22,134.16,170.4a15.42,15.42,0,0,0-3.42,13.21L138,219.06a10.69,10.69,0,0,0,16.79,6.49l12.93-9.46c-11.28-16.53-18.88-36.67-22.24-58.87Z"/><path class="cls-3" d="M257.5,216.09l12.94,9.46a10.69,10.69,0,0,0,16.79-6.49l7.23-35.45A15.45,15.45,0,0,0,291,170.4l-11.29-13.18c-3.36,22.2-11,42.34-22.25,58.87Z"/><path class="cls-3" d="M245.53,212.53a10,10,0,0,0,1.07-1.26,114.35,114.35,0,0,0,12-21.56H166.56a115,115,0,0,0,12,21.56,10.2,10.2,0,0,0,8.31,4.25h51.38A10.21,10.21,0,0,0,245.53,212.53Z"/><path class="cls-3" d="M263.94,87.67c-10.51-33-33.11-56.47-44.49-66.68a10.25,10.25,0,0,0-13.7,0c-1.85,1.66-4,3.68-6.35,6-12.07,12.07-29.34,33-38.14,60.66-7,22-9.5,57.49,1,90.39A5.81,5.81,0,0,1,163,178h99.28a5.81,5.81,0,0,1,.72.05c10.47-32.9,8-68.4,1-90.39Zm-80.59,15.09a29.24,29.24,0,1,1,8.57,20.69,29.28,29.28,0,0,1-8.57-20.69Z"/><path class="cls-3" d="M212.6,120.31a17.55,17.55,0,1,0-12.41-5.14,17.57,17.57,0,0,0,12.41,5.14Z"/><path class="cls-3" d="M192,267.15a5.83,5.83,0,0,0,1.71-4.14V236a5.85,5.85,0,1,0-11.7,0v27a5.85,5.85,0,0,0,10,4.14Z"/><path class="cls-3" d="M212.6,230.15a5.85,5.85,0,0,0-5.85,5.85v51.93a5.85,5.85,0,1,0,11.7,0V236a5.85,5.85,0,0,0-5.85-5.85Z"/><path class="cls-3" d="M231.5,236v27a5.85,5.85,0,1,0,11.7,0V236a5.85,5.85,0,1,0-11.7,0Z"/><line class="cls-3" x1="106.28" y1="217.45" x2="114.68" y2="241.69"/><line class="cls-4" x1="122.47" y1="225.31" x2="97.99" y2="233.8"/><line class="cls-4" x1="74.56" y1="170.56" x2="79.26" y2="184.12"/><line class="cls-4" x1="83.61" y1="174.95" x2="69.92" y2="179.7"/><line class="cls-3" x1="292.92" y1="243.81" x2="298.36" y2="259.49"/><line class="cls-4" x1="303.39" y1="248.89" x2="287.56" y2="254.38"/><line class="cls-3" x1="314.67" y1="97.76" x2="329.59" y2="140.8"/><line class="cls-4" x1="343.41" y1="111.71" x2="299.95" y2="126.78"/><line class="cls-4" x1="104.95" y1="92.22" x2="118.92" y2="132.51"/><line class="cls-4" x1="131.86" y1="105.27" x2="91.17" y2="119.38"/><line class="cls-4" x1="344.7" y1="191.81" x2="356.31" y2="225.29"/><line class="cls-3" x1="367.98" y1="204.29" x2="334.16" y2="216.02"/></g><circle class="cls-1" cx="212.6" cy="212.6" r="202.45"/></svg>