<?xml version="1.0" encoding="iso-8859-1"?>
<!-- Generator: Adobe Illustrator 19.0.0, SVG Export Plug-In . SVG Version: 6.00 Build 0)  -->
<svg version="1.1" id="Layer_1" xmlns="http://www.w3.org/2000/svg" xmlns:xlink="http://www.w3.org/1999/xlink" x="0px" y="0px"
	 viewBox="0 0 512 512" style="enable-background:new 0 0 512 512;" xml:space="preserve">
<g>
	<g>
		<path d="M256,0C188.371,0,124.791,26.336,76.97,74.157S2.813,185.558,2.813,253.187c0,41.812,10.362,83.03,30.007,119.636
			c-1.231,6.825-1.875,13.85-1.875,21.023C30.945,458.996,83.949,512,149.099,512c18.395,0,35.821-4.228,51.36-11.759
			c18.146,4.06,36.795,6.133,55.541,6.133c139.938,0,253.187-113.24,253.187-253.187C509.187,113.15,395.626,0,256,0z
			 M307.777,39.945c32.679,7.935,62.527,23.193,87.681,43.952c-9.476,10.923-23.24,17.378-38.184,17.378
			c-27.921,0-50.637-22.716-50.637-50.637C306.637,46.991,307.031,43.424,307.777,39.945z M149.099,478.242
			c-46.536,0-84.396-37.86-84.396-84.396c0-46.536,37.86-84.396,84.396-84.396c46.536,0,84.396,37.86,84.396,84.396
			C233.494,440.382,195.635,478.242,149.099,478.242z M376.219,436.658c-21.085-6.389-35.823-25.857-35.823-48.439
			c0-27.921,22.716-50.637,50.637-50.637c22.582,0,42.049,14.738,48.439,35.823C422.934,398.559,401.372,420.121,376.219,436.658z
			 M391.033,303.824c-46.536,0-84.396,37.86-84.396,84.396c0,27.397,13.035,52.039,33.69,67.536
			c-25.976,10.853-54.462,16.86-84.327,16.86c-6.097,0-12.179-0.272-18.232-0.771c18.341-20.824,29.484-48.133,29.484-77.998
			c0-59.419-44.093-108.727-101.275-116.943v-34.969h16.879c46.536,0,84.396-37.86,84.396-84.396
			c0-9.322-7.557-16.879-16.879-16.879H149.099c-9.322,0-16.879,7.557-16.879,16.879c0,12.139,0,107.579,0,119.365
			c-34.286,4.927-63.86,24.624-82.052,52.42c-8.946-24.241-13.597-50.051-13.597-76.136c0-120.993,98.436-219.429,219.429-219.429
			c6.2,0,12.339,0.272,18.411,0.78c-1.013,5.255-1.531,10.629-1.531,16.099c0,46.536,37.86,84.396,84.396,84.396
			c24.325,0,46.797-10.232,62.541-27.666c34.57,38.795,55.613,89.893,55.613,145.82c0,29.865-6.007,58.351-16.86,84.327
			C443.072,316.859,418.43,303.824,391.033,303.824z M165.978,208.176v-33.758h64.625c-6.967,19.648-25.74,33.758-47.745,33.758
			H165.978z"/>
	</g>
</g>
<g>
	<g>
		<path d="M391.033,168.791c-27.921,0-50.637,22.716-50.637,50.637s22.716,50.637,50.637,50.637
			c27.921,0,50.637-22.716,50.637-50.637S418.954,168.791,391.033,168.791z M391.033,236.308c-9.307,0-16.879-7.572-16.879-16.879
			s7.572-16.879,16.879-16.879c9.307,0,16.879,7.572,16.879,16.879S400.34,236.308,391.033,236.308z"/>
	</g>
</g>
<g>
	<g>
		<circle cx="222.242" cy="84.396" r="16.879"/>
	</g>
</g>
<g>
	<g>
		<circle cx="289.758" cy="286.945" r="16.879"/>
	</g>
</g>
<g>
	<g>
		<circle cx="87.209" cy="219.429" r="16.879"/>
	</g>
</g>
<g>
</g>
<g>
</g>
<g>
</g>
<g>
</g>
<g>
</g>
<g>
</g>
<g>
</g>
<g>
</g>
<g>
</g>
<g>
</g>
<g>
</g>
<g>
</g>
<g>
</g>
<g>
</g>
<g>
</g>
</svg>
