<svg id="a0910be2-6cb3-414b-9b74-c9f97494131d" xmlns="http://www.w3.org/2000/svg" viewBox="0 0 887 793"><defs><style>.cls-1{fill:#e6e6e6;}.cls-2{fill:#240f3e;}.cls-3{fill:#f2f2f2;}.cls-4{fill:#ff6584;}.cls-5{fill:#ce2866;}.cls-6{opacity:0.2;}.cls-10,.cls-6{isolation:isolate;}.cls-7{fill:#fff;}.cls-8{fill:#ffb8b8;}.cls-9{fill:#36313f;}.cls-10{opacity:0.1;}.cls-11{fill:#2f2e41;}</style></defs><ellipse class="cls-1" cx="167.08" cy="768" rx="167.08" ry="25"/><path class="cls-2" d="M887,0V734H735C329.62,734,1,405.38,1,0H887Z"/><circle class="cls-3" cx="234.14" cy="178.42" r="71.88"/><circle class="cls-4" cx="454.92" cy="32.6" r="6.16"/><circle class="cls-4" cx="254.68" cy="445.42" r="6.16"/><circle class="cls-3" cx="234.14" cy="32.6" r="6.16" transform="matrix(1, -0.01, 0.01, 1, -0.28, 2.05)"/><circle class="cls-3" cx="147.88" cy="329.38" r="6.16"/><circle class="cls-3" cx="393.31" cy="198.96" r="6.16"/><circle class="cls-3" cx="718.84" cy="157.89" r="6.16"/><circle class="cls-5" cx="602.8" cy="413.59" r="209.49"/><circle class="cls-6" cx="612.04" cy="328.35" r="30.81"/><circle class="cls-6" cx="612.04" cy="534.76" r="53.4" transform="translate(-13.85 1053.24) rotate(-80.78)"/><circle class="cls-6" cx="767.1" cy="453.63" r="13.35"/><circle class="cls-6" cx="240.39" cy="141.35" r="7.1"/><circle class="cls-6" cx="541.28" cy="282.03" r="7.1"/><circle class="cls-6" cx="621.28" cy="422.83" r="9.24"/><circle class="cls-6" cx="257.67" cy="198.05" r="7.1"/><circle class="cls-6" cx="448.67" cy="372.62" r="7.1"/><circle class="cls-6" cx="194.07" cy="191.35" r="10.25"/><circle class="cls-6" cx="507.28" cy="445" r="10.25"/><circle class="cls-6" cx="732.19" cy="328.35" r="13.35"/><path class="cls-7" d="M445.58,520.39c-49.4-14.19-78.35-37.45-81.54-65.49-2.18-19.18,8.1-39.27,29.71-58.09a2.06,2.06,0,0,1,2.7,3.1c-20.55,17.89-30.35,36.74-28.33,54.53,3,26.28,30.9,48.3,78.59,62,48.3,13.87,110.86,17.42,176.17,10s125.48-24.91,169.43-49.26c43.41-24,65.67-51.76,62.68-78.05-2-17.86-20-34.17-55-49.87a2.06,2.06,0,0,1,1.69-3.75c36.42,16.34,55.2,33.73,57.41,53.16,3.18,28-19.82,57.2-64.78,82.11-44.41,24.6-105.13,42.26-171,49.74a585.73,585.73,0,0,1-65.93,3.81C516.13,534.34,477.74,529.62,445.58,520.39Z"/><polygon class="cls-8" points="246.86 716.73 246.86 732.75 233.76 734.2 235.21 721.1 246.86 716.73"/><polygon class="cls-8" points="86.75 716.73 86.75 732.75 99.85 734.2 98.39 721.1 86.75 716.73"/><path class="cls-9" d="M95.48,438.73s-16,246-20.38,257.63S78,709.46,78,709.46v16h24.74s1.46-16,5.82-16,2.91-11.65,2.91-11.65L166.8,499.86s53.86,205.23,59.68,209.6,5.82,16,5.82,16l24.75-2.91s-4.37-16,0-18.93-14.56-115-14.56-115l-5.82-149.92Z"/><path class="cls-9" d="M241,729.83c-1.46,1.46-5.83,2.92-7.28,0s-4.37,20.38-2.91,23.29,23.29,30.57,52.4,24.75-2.91-26.2-2.91-26.2-23.29-29.11-26.2-32S244,721.1,244,721.1,242.49,728.38,241,729.83Z"/><path class="cls-9" d="M92.57,729.83c1.46,1.46,5.82,2.92,7.28,0s4.37,20.38,2.91,23.29-23.29,30.57-52.4,24.75,2.91-26.2,2.91-26.2,23.29-29.11,26.2-32,10.19,1.45,10.19,1.45S91.12,728.38,92.57,729.83Z"/><circle class="cls-8" cx="148.61" cy="193.47" r="29.84"/><polygon class="cls-8" points="128.96 208.75 137.69 262.61 172.63 255.33 168.26 210.21 128.96 208.75"/><path class="cls-7" d="M118.77,253.87,101.3,450.37c51,36.39,131-11.64,131-11.64l-59.67-195c-32,20.38-40.76,1.46-40.76,1.46Z"/><path class="cls-9" d="M175.54,425.63c0,8.73,11.64,11.64,11.64,11.64C207.56,432.9,241,448.91,241,448.91c14.55-7.27-4.37-46.57-4.37-46.57,11.64-14.56-1.46-37.85-1.46-37.85l4.37-107.71c-4.37-14.55-42.21-18.92-42.21-18.92l-2.91-18.92-27.66,4.37S175.54,416.89,175.54,425.63Z"/><path class="cls-9" d="M131.87,296.08c11.64,48-14.55,148.47-17.47,157.2s-24.74,2.91-24.74,2.91c-11.64-10.19,7.28-48,7.28-48-4.37-13.1,7.28-33.48,7.28-33.48S73.65,304.82,75.1,290.26,115.86,251,115.86,251l1.46-20.38,16-4.36C143.51,235,131.87,296.08,131.87,296.08Z"/><path class="cls-5" d="M116.59,284.3h.55V341h0a8.68,8.68,0,0,0,8.68,8.68h31.8A8.68,8.68,0,0,0,166.3,341V258.61h0a8.68,8.68,0,0,0-8.68-8.69h-31.8a8.68,8.68,0,0,0-8.68,8.69v15h-.55Z"/><path class="cls-8" d="M120.23,349.94s29.11-32,11.64-43.67-29.11,26.2-29.11,26.2Z"/><path class="cls-8" d="M169.71,329.56s-27.65-26.2-17.46-37.84,30.56,13.1,30.56,13.1Z"/><path class="cls-9" d="M223.57,325.19,179.9,299l-20.37,30.57s37.84,40.75,69.86,46.58,37.85-29.11,37.85-37.85-16-58.22-20.38-71.32-11.65-11.64-11.65-11.64Z"/><polygon class="cls-10" points="229.24 291.19 219.93 314.28 177.72 298.27 222.84 324.46 228.93 293.06 229.24 291.19"/><polygon class="cls-10" points="91.84 308.45 94.75 328.83 100.58 324.46 91.84 308.45"/><path class="cls-10" d="M173.08,342.67c20.11,25.48,62.86,37.11,62.86,37.11C193.73,376.86,173.08,342.67,173.08,342.67Z"/><path class="cls-10" d="M96.08,398.89c23.15-1.25,32.15-45.31,32.15-45.31C123.86,407.43,96.08,398.89,96.08,398.89Z"/><path class="cls-9" d="M92.57,333.93l10.19-7.28,24.74,23.29-24.74,45.12C78,412.53,66.37,386.33,59.09,374.68s11.65-61.13,14.56-74.23,7.28-16,7.28-16Z"/><path class="cls-11" d="M161.42,175.37c-12.81,19.55-38.23,8.74-38.23,8.74-4.55,3.51-4.51,10.63-2.73,19.11l-7.64-19.66-5.46-9.83c-3.33-6,2.68-11.58,7.88-15a44.58,44.58,0,0,0,9-8.29c5.92-6.92,17-3.5,25.87,1a68,68,0,0,0,25.56,7c26.66,2.11,1.63,42.66,1.63,42.66C180.32,198.47,175.76,164.61,161.42,175.37Z"/><circle class="cls-7" cx="141.33" cy="279.34" r="7.28"/></svg>