<?xml version="1.0" encoding="utf-8"?>
<!-- Generator: Adobe Illustrator 24.1.1, SVG Export Plug-In . SVG Version: 6.00 Build 0)  -->
<svg version="1.1" id="Layer_1" xmlns="http://www.w3.org/2000/svg" xmlns:xlink="http://www.w3.org/1999/xlink" x="0px" y="0px"
	 viewBox="0 0 512 512" style="enable-background:new 0 0 512 512;" xml:space="preserve">
<style type="text/css">
	.st0{fill:url(#SVGID_1_);}
	.st1{fill:#FFFFFF;}
	.st2{fill:#CE2866;}
	.st3{fill:#240F3E;}
</style>
<linearGradient id="SVGID_1_" gradientUnits="userSpaceOnUse" x1="0" y1="255.1969" x2="512" y2="255.1969" gradientTransform="matrix(1 0 0 -1 0 511.1969)">
	<stop  offset="0" style="stop-color:#CE2866"/>
	<stop  offset="1" style="stop-color:#240F3E"/>
</linearGradient>
<path class="st0" d="M512,256c0,141.4-114.6,256-256,256S0,397.4,0,256S114.6,0,256,0S512,114.6,512,256z"/>
<g>
	<path class="st1" d="M368.6,121c-3.1,0.1-75.5,3.7-124.4,52.6c-12.5,12.5-24.4,27.7-34.6,42.1l-7.8-7.8
		c-15.8-15.8-41.7-16-57.7-0.3l-20.5,19.7V249H137c10,0,19.4,3.9,26.4,11l78.8,78.9c7.1,7.1,11,16.4,11,26.4v13.3h21.7l19.7-20.5
		c15.6-16,15.5-41.9-0.3-57.7l-7.9-7.9c14.3-10.2,29.6-22.2,42.1-34.7c48.9-48.9,52.4-121.4,52.6-124.4l0.5-13L368.6,121z
		 M349.9,172.2l-20.1-20.1c10-2.9,18.9-4.6,25.7-5.7C354.5,153.3,352.7,162.2,349.9,172.2z M156.9,228.4l3.9-3.7l0.1-0.1
		c6.7-6.5,17.5-6.5,24.1,0.1l11.1,11.1c-3.4,5.3-6.3,10.1-8.8,14.2l-7-7C173.6,236.3,165.6,231.4,156.9,228.4z M277.3,317.3
		c6.6,6.6,6.7,17.4,0.1,24.1l-3.8,3.9c-3-8.7-7.9-16.7-14.7-23.4l-6.9-6.9c4.1-2.5,8.9-5.4,14.1-8.8L277.3,317.3z M311.6,241
		c-24.2,24.2-61,47.2-76.9,56.6l-30-30.1c9.3-15.9,32.1-52.8,56.3-77c13.3-13.3,28.8-22.7,44-29.4l35.9,35.9
		C334.2,212.1,324.8,227.7,311.6,241z"/>
	<path class="st1" d="M287.3,224.6c0,5.5-4.4,9.9-9.9,9.9c-5.5,0-9.9-4.4-9.9-9.9c0-5.5,4.4-9.9,9.9-9.9
		C282.8,214.7,287.3,219.2,287.3,224.6z"/>
	<path class="st1" d="M260,251.4c0,5.5-4.4,9.9-9.9,9.9c-5.5,0-9.9-4.4-9.9-9.9c0-5.5,4.4-9.9,9.9-9.9
		C255.6,241.5,260,245.9,260,251.4z"/>
	<path class="st1" d="M124.7,360.4l47.3-47.3l16.9,16.9l-47.3,47.3L124.7,360.4z"/>
	<path class="st1" d="M195.8,377.3l-16.9-16.9l30-30l16.9,16.9L195.8,377.3z"/>
	<path class="st1" d="M124.7,306.2l30-30l16.9,16.9l-30,30L124.7,306.2z"/>
	<path class="st1" d="M315,197.4c0,5.5-4.4,9.9-9.9,9.9c-5.5,0-9.9-4.4-9.9-9.9c0-5.5,4.4-9.9,9.9-9.9
		C310.6,187.4,315,191.9,315,197.4z"/>
</g>
<rect x="-464" y="13.9" class="st2" width="183" height="206.4"/>
<rect x="-464" y="255.7" class="st3" width="183" height="206.4"/>
</svg>
