<?xml version="1.0" encoding="utf-8"?>
<!-- Generator: Adobe Illustrator 24.1.1, SVG Export Plug-In . SVG Version: 6.00 Build 0)  -->
<svg version="1.1" id="Layer_1" xmlns="http://www.w3.org/2000/svg" xmlns:xlink="http://www.w3.org/1999/xlink" x="0px" y="0px"
	 viewBox="0 0 512 512" style="enable-background:new 0 0 512 512;" xml:space="preserve">
<style type="text/css">
	.st0{fill:url(#SVGID_1_);}
	.st1{fill:#CE2866;}
	.st2{fill:#240F3E;}
	.st3{fill:#FFFFFF;}
</style>
<linearGradient id="SVGID_1_" gradientUnits="userSpaceOnUse" x1="0" y1="256" x2="512" y2="256">
	<stop  offset="0" style="stop-color:#CE2866"/>
	<stop  offset="1" style="stop-color:#240F3E"/>
</linearGradient>
<path class="st0" d="M512,256c0,141.4-114.6,256-256,256S0,397.4,0,256S114.6,0,256,0S512,114.6,512,256z"/>
<rect x="-558" y="-63.8" class="st1" width="183" height="206.4"/>
<rect x="-558" y="178" class="st2" width="183" height="206.4"/>
<g>
	<g>
		<g>
			<path class="st3" d="M256,103.5c-40.1,0-77.8,15.6-106.2,44s-44,66.1-44,106.2c0,24.8,6.1,49.3,17.8,71c-0.7,4-1.1,8.2-1.1,12.5
				c0,38.6,31.4,70.1,70.1,70.1c10.9,0,21.2-2.5,30.5-7c10.8,2.4,21.8,3.6,32.9,3.6c83,0,150.2-67.2,150.2-150.2
				C406.2,170.6,338.8,103.5,256,103.5z M286.7,127.2c19.4,4.7,37.1,13.8,52,26.1c-5.6,6.5-13.8,10.3-22.7,10.3
				c-16.6,0-30-13.5-30-30C286,131.4,286.3,129.2,286.7,127.2z M192.6,387.2c-27.6,0-50.1-22.5-50.1-50.1S165,287,192.6,287
				s50.1,22.5,50.1,50.1C242.6,364.7,220.2,387.2,192.6,387.2z M327.3,362.5c-12.5-3.8-21.2-15.3-21.2-28.7c0-16.6,13.5-30,30-30
				c13.4,0,24.9,8.7,28.7,21.2C355,339.9,342.2,352.7,327.3,362.5z M336.1,283.7c-27.6,0-50.1,22.5-50.1,50.1
				c0,16.3,7.7,30.9,20,40.1c-15.4,6.4-32.3,10-50,10c-3.6,0-7.2-0.2-10.8-0.5c10.9-12.4,17.5-28.6,17.5-46.3
				c0-35.2-26.2-64.5-60.1-69.4V247h10c27.6,0,50.1-22.5,50.1-50.1c0-5.5-4.5-10-10-10h-60.1c-5.5,0-10,4.5-10,10
				c0,7.2,0,63.8,0,70.8c-20.3,2.9-37.9,14.6-48.7,31.1c-5.3-14.4-8.1-29.7-8.1-45.2c0-71.8,58.4-130.2,130.2-130.2
				c3.7,0,7.3,0.2,10.9,0.5c-0.6,3.1-0.9,6.3-0.9,9.5c0,27.6,22.5,50.1,50.1,50.1c14.4,0,27.8-6.1,37.1-16.4
				c20.5,23,33,53.3,33,86.5c0,17.7-3.6,34.6-10,50C367,291.4,352.4,283.7,336.1,283.7z M202.6,227v-20h38.3
				c-4.1,11.7-15.3,20-28.3,20H202.6z"/>
		</g>
	</g>
	<g>
		<g>
			<path class="st3" d="M336.1,203.6c-16.6,0-30,13.5-30,30s13.5,30,30,30s30-13.5,30-30S352.7,203.6,336.1,203.6z M336.1,243.7
				c-5.5,0-10-4.5-10-10c0-5.5,4.5-10,10-10s10,4.5,10,10C346.1,239.2,341.6,243.7,336.1,243.7z"/>
		</g>
	</g>
	<g>
		<g>
			<circle class="st3" cx="236" cy="153.5" r="10"/>
		</g>
	</g>
	<g>
		<g>
			<circle class="st3" cx="276" cy="273.7" r="10"/>
		</g>
	</g>
	<g>
		<g>
			<circle class="st3" cx="155.9" cy="233.6" r="10"/>
		</g>
	</g>
	<g>
	</g>
	<g>
	</g>
	<g>
	</g>
	<g>
	</g>
	<g>
	</g>
	<g>
	</g>
	<g>
	</g>
	<g>
	</g>
	<g>
	</g>
	<g>
	</g>
	<g>
	</g>
	<g>
	</g>
	<g>
	</g>
	<g>
	</g>
	<g>
	</g>
</g>
</svg>
